<svg id="Layer_1" data-name="Layer 1" xmlns="http://www.w3.org/2000/svg" viewBox="0 0 230.09 228.44"><defs><style>.cls-1{fill:#231f20;}</style></defs><title>BlackWZGD</title><path class="cls-1" d="M157.31,72.73c-15.39-3.92-31.57-3.83-47.33-4.22-13.12,0-26.48.53-39.42,2.9C60,73.34,50.38,75.7,45.39,85.82c-8,16.17-7.12,37.8-5.78,55.37.66,8.71,2.18,17.08,7.76,24.16,4.38,5.56,11.6,7.05,18.24,8.36a231.33,231.33,0,0,0,45.45,4A241.53,241.53,0,0,0,154.38,174c6.11-1.11,13.59-2.32,18.32-6.74,6.46-6,8.46-15.71,9.23-24.07,1.62-17.67,2.26-38.87-4.76-55.46C173.22,78.42,166.9,75.17,157.31,72.73Zm20.36,70.49c-.76,8.06-3,18.58-10.71,22.9-5.89,3.31-14.12,4-20.66,4.88a266.26,266.26,0,0,1-33.17,2.51h-4.56a260,260,0,0,1-34.75-2.72c-6.32-.91-14.53-1.62-20-5.18-7.57-4.91-9.3-16.23-9.92-24.42-1.19-15.69-1.6-33.37,3.34-48.43C51.53,79.57,62,77,74.82,75A238.91,238.91,0,0,1,110,72.76c14.37.36,29,.3,43.13,3.35,12.08,2.62,18.57,6.52,21.95,18.56C179.35,109.94,179.16,127.49,177.67,143.22Z"/><path class="cls-1" d="M230.09,82.14a9.24,9.24,0,1,0-12.77,8.53l-3.24,17.27a24.44,24.44,0,0,1-3-4.1c-3.19-5.69-3.77-12.27-4.26-18.64C206,75.14,205.46,65,202.35,55.35,190.78,19.34,148.07.58,112.83,0a2.63,2.63,0,0,0-.41,0,2.5,2.5,0,0,0-.4,0c-36.4.63-80,20.49-90.38,58.23C19,67.71,18.88,77.43,17.8,87.14c-.57,5.07-1.29,10.7-3.12,15.52-2.11,5.6-6.41,7.47-9.82,11.94-5.77,7.57-5.12,20.34-4.4,29.32.67,8.48,1.94,18.92,7.14,25.92,3.29,4.42,8.61,6.45,13.58,8.42,8.49,3.37,12.74,8.46,18.16,15.68,8.83,11.78,17.22,21.44,31,27.6,11.43,5.11,22.75,6.37,34.54,6.73a2.19,2.19,0,0,0,.88.17c3,0,6.17,0,9.33,0l4,0a2.23,2.23,0,0,0,.66-.1c9.09-.22,18.31-1,26.62-3.6,14.83-4.68,26.19-13.44,35.41-25.74,5.84-7.79,11.15-14.25,19.78-19,5.61-3.07,12.7-5.82,16.76-11,5.22-6.65,6.37-16.91,6.79-25.11.44-9.14.6-21.34-4.95-29.11a32.59,32.59,0,0,0-2.49-3q1.93-10.23,3.85-20.46A9.24,9.24,0,0,0,230.09,82.14Zm-9.4,50.71a90.88,90.88,0,0,1,.15,11.07c-.42,8.37-1.64,19.21-8.42,24.78-5.93,4.88-13.64,7.2-19.79,11.75-4.57,3.39-8.12,7.88-11.54,12.38-10,13.23-20.76,23.66-37.27,28.26-9.16,2.55-19.41,3-29.26,3.08-15-.08-29.19-.31-43.3-6.84S49.4,199.87,40.07,187.92c-2.74-3.51-5.61-7.38-9.32-9.95-4.8-3.31-10.91-4.07-15.82-7.23-8.1-5.21-9.52-17.92-10.21-26.82a87,87,0,0,1-.18-11.07c.38-8.69,1.89-13.66,8.12-19.68,10.24-9.9,9.1-26.4,10.53-39.56,2.29-21,11.87-38.16,29.31-50.31A109.8,109.8,0,0,1,112,4.25a1.75,1.75,0,0,0,.4,0,1.77,1.77,0,0,0,.41,0c38.61.64,81.61,22.89,88.12,63.93,2.53,15.91.22,31.58,11.5,44.5C218,119.09,220.07,124.28,220.69,132.85ZM215,82.14A5.83,5.83,0,1,1,220.86,88,5.83,5.83,0,0,1,215,82.14Z"/></svg>