<svg id="Layer_1" data-name="Layer 1" xmlns="http://www.w3.org/2000/svg" viewBox="0 0 565.11 99.83">
<defs>
<style>.cls-1{fill:#000;stroke:#000;stroke-miterlimit:10;}</style>
</defs><title>WhiteHorizontal</title>
<path fill="#000" class="cls-1" d="M68.56,32c-6.66-1.69-13.66-1.65-20.48-1.82a97.3,97.3,0,0,0-17,1.25c-4.56.84-8.74,1.86-10.89,6.24-3.45,7-3.08,16.35-2.5,23.95C17.92,65.35,18.58,69,21,72c1.9,2.4,5,3,7.89,3.61A99.68,99.68,0,0,0,48.55,77.4a104.09,104.09,0,0,0,18.74-1.61c2.64-.48,5.88-1,7.92-2.92,2.8-2.61,3.66-6.79,4-10.41.7-7.64,1-16.81-2.06-24C75.44,34.43,72.7,33,68.56,32Zm8.81,30.5C77,66,76,70.5,72.73,72.37c-2.55,1.43-6.11,1.73-8.94,2.11a118.4,118.4,0,0,1-14.35,1.09h-2a112.5,112.5,0,0,1-15-1.18c-2.74-.39-6.29-.7-8.67-2.24-3.28-2.13-4-7-4.3-10.57-.51-6.79-.69-14.43,1.45-20.95,1.87-5.7,6.4-6.84,11.95-7.69a103.06,103.06,0,0,1,15.21-1c6.22.15,12.55.13,18.66,1.45,5.23,1.13,8,2.82,9.5,8C78.09,48.06,78,55.65,77.37,62.46Z"/>
<path fill="#000" class="cls-1" d="M100,36a4,4,0,1,0-5.52,3.68q-.7,3.75-1.4,7.48a10.47,10.47,0,0,1-1.31-1.78C90.43,43,90.18,40.11,90,37.36,89.64,33,89.39,28.63,88,24.44,83,8.87,64.56.75,49.31.5H49C33.21.77,14.37,9.36,9.86,25.69,8.73,29.79,8.67,34,8.2,38.2a28.62,28.62,0,0,1-1.35,6.72c-.91,2.42-2.77,3.22-4.25,5.16C.11,53.35.39,58.88.7,62.76,1,66.43,1.54,71,3.79,74c1.42,1.91,3.72,2.79,5.87,3.64,3.68,1.46,5.51,3.66,7.86,6.79C21.34,89.5,25,93.68,30.93,96.34c5,2.21,9.84,2.76,14.94,2.91a.93.93,0,0,0,.39.08H52a1.18,1.18,0,0,0,.28,0,42.49,42.49,0,0,0,11.52-1.56A30.05,30.05,0,0,0,79.14,86.59c2.52-3.37,4.82-6.16,8.56-8.21,2.42-1.33,5.49-2.52,7.25-4.76,2.26-2.87,2.75-7.31,2.93-10.86.19-3.95.26-9.23-2.14-12.59a13.18,13.18,0,0,0-1.07-1.3c.55-2.95,1.11-5.9,1.66-8.85A4,4,0,0,0,100,36ZM96,58A40.13,40.13,0,0,1,96,62.76c-.18,3.62-.71,8.31-3.64,10.73-2.57,2.1-5.9,3.11-8.56,5.08a25.92,25.92,0,0,0-5,5.35c-4.34,5.73-9,10.24-16.12,12.23a50,50,0,0,1-12.66,1.33c-6.48,0-12.63-.13-18.73-3S21.87,87,17.84,81.8a19.88,19.88,0,0,0-4-4.3C11.73,76.06,9.08,75.74,7,74.37c-3.5-2.26-4.12-7.76-4.42-11.61A38.1,38.1,0,0,1,2.46,58c.17-3.76.82-5.91,3.51-8.52C10.41,45.18,9.91,38,10.53,32.34A29.27,29.27,0,0,1,23.21,10.58,47.45,47.45,0,0,1,49,2.34l.18,0,.17,0C66,2.62,84.62,12.24,87.44,30c1.09,6.88.09,13.66,5,19.25A13.08,13.08,0,0,1,96,58ZM93.53,36a2.52,2.52,0,1,1,2.52,2.52A2.52,2.52,0,0,1,93.53,36Z"/>
<path fill="#000" class="cls-1" d="M144.15,28.3a1.17,1.17,0,0,1,1.13-1.73H148a1.25,1.25,0,0,1,1.14.73L165.7,64.66H166L182.57,27.3a1.32,1.32,0,0,1,1.14-.73h2.67a1.17,1.17,0,0,1,1.13,1.73L167.23,73.2a1.27,1.27,0,0,1-1.13.73h-.67a1.34,1.34,0,0,1-1.13-.73Z"/>
<path fill="#000" class="cls-1" d="M233.6,27.83a1.27,1.27,0,0,1,1.27-1.26h26.28a1.26,1.26,0,0,1,1.27,1.26v1.94A1.27,1.27,0,0,1,261.15,31H238.74V47.31h19.15a1.31,1.31,0,0,1,1.26,1.27v1.94a1.26,1.26,0,0,1-1.26,1.26H238.74v17h22.41a1.27,1.27,0,0,1,1.27,1.27V72a1.26,1.26,0,0,1-1.27,1.26H234.87A1.27,1.27,0,0,1,233.6,72Z"/>
<path fill="#000" class="cls-1" d="M308.92,66.26c.33-.4.66-.87,1-1.27.66-.87,1.4-1.4,2.33-.6.47.4,5.34,5.07,11.28,5.07,5.4,0,8.94-3.4,8.94-7.34,0-4.6-4-7.33-11.68-10.54-7.34-3.2-11.74-6.2-11.74-13.81,0-4.53,3.6-11.87,14.21-11.87a21.83,21.83,0,0,1,11.41,3.4,1.49,1.49,0,0,1,.4,2.27c-.27.4-.54.87-.8,1.27a1.52,1.52,0,0,1-2.34.6c-.46-.27-4.67-3.07-8.74-3.07-7.07,0-9.2,4.54-9.2,7.34,0,4.47,3.4,7.07,9,9.4,9,3.67,14.81,7.08,14.81,14.81,0,6.94-6.6,12-14.41,12a21.72,21.72,0,0,1-14.07-5.4A1.46,1.46,0,0,1,308.92,66.26Z"/>
<path fill="#000" class="cls-1" d="M383.3,66.26c.33-.4.66-.87,1-1.27.66-.87,1.4-1.4,2.33-.6.47.4,5.34,5.07,11.27,5.07,5.41,0,8.94-3.4,8.94-7.34,0-4.6-4-7.33-11.67-10.54-7.34-3.2-11.74-6.2-11.74-13.81,0-4.53,3.6-11.87,14.21-11.87a21.83,21.83,0,0,1,11.41,3.4,1.49,1.49,0,0,1,.4,2.27c-.27.4-.54.87-.81,1.27a1.51,1.51,0,0,1-2.33.6c-.47-.27-4.67-3.07-8.74-3.07-7.07,0-9.21,4.54-9.21,7.34,0,4.47,3.41,7.07,9,9.4,9,3.67,14.81,7.08,14.81,14.81,0,6.94-6.6,12-14.41,12a21.78,21.78,0,0,1-14.08-5.4A1.46,1.46,0,0,1,383.3,66.26Z"/>
<path fill="#000" class="cls-1" d="M460.68,27.83a1.26,1.26,0,0,1,1.26-1.26h26.29a1.27,1.27,0,0,1,1.27,1.26v1.94A1.27,1.27,0,0,1,488.23,31H465.81V47.31H485a1.31,1.31,0,0,1,1.27,1.27v1.94A1.26,1.26,0,0,1,485,51.78H465.81v17h22.42a1.27,1.27,0,0,1,1.27,1.27V72a1.27,1.27,0,0,1-1.27,1.26H461.94A1.26,1.26,0,0,1,460.68,72Z"/>
<path fill="#000" class="cls-1" d="M539,27.83a1.26,1.26,0,0,1,1.27-1.26h2.6a1.31,1.31,0,0,1,1.27,1.26v41h19.21a1.27,1.27,0,0,1,1.27,1.27V72a1.27,1.27,0,0,1-1.27,1.26H540.26A1.26,1.26,0,0,1,539,72Z"/></svg>