<svg id="Layer_1" data-name="Layer 1" xmlns="http://www.w3.org/2000/svg" viewBox="0 0 576.38 112.17"><defs><style>.cls-1{fill:#231f20;}</style></defs><title>BlackHorizontal</title><path class="cls-1" d="M73.55,36.12c-6.66-1.7-13.66-1.65-20.48-1.83a96.29,96.29,0,0,0-17,1.26c-4.56.83-8.74,1.85-10.9,6.23-3.44,7-3.07,16.36-2.5,24,.29,3.77.95,7.39,3.36,10.45,1.9,2.41,5,3,7.89,3.62a101.21,101.21,0,0,0,19.67,1.75,104.1,104.1,0,0,0,18.74-1.62c2.64-.47,5.88-1,7.92-2.91,2.8-2.61,3.66-6.8,4-10.41.71-7.65,1-16.82-2-24C80.43,38.58,77.69,37.18,73.55,36.12Zm8.81,30.5c-.34,3.48-1.33,8-4.64,9.9-2.55,1.44-6.11,1.74-8.94,2.12a116.4,116.4,0,0,1-14.35,1.08h-2a112.37,112.37,0,0,1-15-1.18c-2.74-.39-6.29-.7-8.67-2.24-3.28-2.12-4-7-4.3-10.56C24,59,23.77,51.3,25.91,44.79c1.87-5.71,6.4-6.84,12-7.69a103.06,103.06,0,0,1,15.21-1c6.22.16,12.55.13,18.66,1.45,5.22,1.14,8,2.82,9.5,8C83.08,52.22,83,59.81,82.36,66.62Z"/><path class="cls-1" d="M105,40.19a4,4,0,1,0-5.52,3.69L98.1,51.35a10.9,10.9,0,0,1-1.3-1.77c-1.38-2.46-1.63-5.31-1.84-8.07-.33-4.35-.58-8.72-1.93-12.91C88,13,69.55,4.91,54.3,4.66a.47.47,0,0,0-.17,0,.55.55,0,0,0-.18,0c-15.75.27-34.6,8.86-39.1,25.19-1.13,4.1-1.19,8.3-1.66,12.5a28.52,28.52,0,0,1-1.35,6.72c-.91,2.42-2.77,3.23-4.25,5.16C5.1,57.51,5.38,63,5.69,66.92c.29,3.67.84,8.18,3.09,11.21,1.42,1.92,3.72,2.79,5.87,3.64,3.67,1.46,5.51,3.67,7.86,6.79,3.82,5.1,7.45,9.28,13.41,11.94,4.95,2.21,9.84,2.76,14.94,2.91a.92.92,0,0,0,.38.08H57a.82.82,0,0,0,.28,0,42.11,42.11,0,0,0,11.52-1.56A30,30,0,0,0,84.13,90.75c2.52-3.37,4.82-6.16,8.55-8.21,2.43-1.33,5.5-2.52,7.26-4.76,2.25-2.87,2.75-7.31,2.93-10.86.19-4,.26-9.23-2.14-12.59A14.91,14.91,0,0,0,99.66,53c.55-3,1.11-5.9,1.66-8.85A4,4,0,0,0,105,40.19ZM101,62.13a40.3,40.3,0,0,1,.06,4.79c-.18,3.62-.71,8.31-3.64,10.72-2.57,2.11-5.9,3.11-8.56,5.08a26,26,0,0,0-5,5.36c-4.34,5.72-9,10.24-16.12,12.22a49.51,49.51,0,0,1-12.66,1.34c-6.48,0-12.63-.14-18.73-3S26.86,91.12,22.83,86a19.71,19.71,0,0,0-4-4.31c-2.07-1.43-4.72-1.76-6.84-3.13-3.51-2.25-4.12-7.75-4.42-11.6a38.29,38.29,0,0,1-.08-4.79c.17-3.76.82-5.91,3.51-8.51,4.44-4.29,3.94-11.43,4.56-17.12A29.29,29.29,0,0,1,28.2,14.73,47.62,47.62,0,0,1,54,6.49a.55.55,0,0,0,.18,0,.47.47,0,0,0,.17,0C71,6.77,89.61,16.4,92.43,34.15c1.09,6.88.09,13.67,5,19.26A13.06,13.06,0,0,1,101,62.13ZM98.51,40.19A2.53,2.53,0,1,1,101,42.71,2.53,2.53,0,0,1,98.51,40.19Z"/><path class="cls-1" d="M149.14,32.46a1.18,1.18,0,0,1,1.13-1.74h2.67a1.21,1.21,0,0,1,1.13.74l16.61,37.35H171l16.61-37.35a1.31,1.31,0,0,1,1.14-.74h2.67a1.18,1.18,0,0,1,1.13,1.74L172.22,77.35a1.28,1.28,0,0,1-1.13.74h-.67a1.37,1.37,0,0,1-1.14-.74Z"/><path class="cls-1" d="M238.59,32a1.27,1.27,0,0,1,1.27-1.27h26.28A1.27,1.27,0,0,1,267.41,32v1.93a1.27,1.27,0,0,1-1.27,1.27H243.73V51.47h19.15a1.31,1.31,0,0,1,1.26,1.27v1.93a1.26,1.26,0,0,1-1.26,1.27H243.73V73h22.41a1.27,1.27,0,0,1,1.27,1.27v1.93a1.27,1.27,0,0,1-1.27,1.27H239.86a1.27,1.27,0,0,1-1.27-1.27Z"/><path class="cls-1" d="M313.91,70.41c.33-.39.66-.86,1-1.26.66-.87,1.4-1.4,2.33-.6.47.4,5.34,5.07,11.27,5.07,5.41,0,8.94-3.41,8.94-7.34,0-4.6-4-7.34-11.67-10.54C318.44,52.54,314,49.53,314,41.93c0-4.54,3.6-11.88,14.21-11.88a21.79,21.79,0,0,1,11.41,3.41,1.49,1.49,0,0,1,.4,2.27c-.27.4-.54.86-.8,1.26a1.51,1.51,0,0,1-2.34.6c-.47-.26-4.67-3.07-8.74-3.07-7.07,0-9.2,4.54-9.2,7.34,0,4.47,3.4,7.07,9,9.41,9,3.67,14.81,7.07,14.81,14.81,0,6.94-6.6,12-14.41,12a21.71,21.71,0,0,1-14.07-5.41A1.46,1.46,0,0,1,313.91,70.41Z"/><path class="cls-1" d="M388.28,70.41c.34-.39.67-.86,1-1.26.67-.87,1.41-1.4,2.34-.6.47.4,5.34,5.07,11.27,5.07,5.41,0,8.94-3.41,8.94-7.34,0-4.6-4-7.34-11.67-10.54-7.34-3.2-11.74-6.21-11.74-13.81,0-4.54,3.6-11.88,14.21-11.88A21.78,21.78,0,0,1,414,33.46a1.48,1.48,0,0,1,.4,2.27c-.26.4-.53.86-.8,1.26a1.5,1.5,0,0,1-2.33.6c-.47-.26-4.67-3.07-8.74-3.07-7.07,0-9.21,4.54-9.21,7.34,0,4.47,3.41,7.07,9,9.41,9,3.67,14.81,7.07,14.81,14.81,0,6.94-6.6,12-14.41,12a21.77,21.77,0,0,1-14.08-5.41A1.47,1.47,0,0,1,388.28,70.41Z"/><path class="cls-1" d="M465.67,32a1.26,1.26,0,0,1,1.26-1.27h26.29A1.26,1.26,0,0,1,494.48,32v1.93a1.26,1.26,0,0,1-1.26,1.27H470.8V51.47H490a1.32,1.32,0,0,1,1.27,1.27v1.93A1.27,1.27,0,0,1,490,55.94H470.8V73h22.42a1.26,1.26,0,0,1,1.26,1.27v1.93a1.26,1.26,0,0,1-1.26,1.27H466.93a1.26,1.26,0,0,1-1.26-1.27Z"/><path class="cls-1" d="M544,32a1.27,1.27,0,0,1,1.27-1.27h2.6A1.31,1.31,0,0,1,549.12,32V73h19.21a1.27,1.27,0,0,1,1.27,1.27v1.93a1.27,1.27,0,0,1-1.27,1.27H545.25A1.27,1.27,0,0,1,544,76.15Z"/></svg>