<svg xmlns="http://www.w3.org/2000/svg" viewBox="0 0 374 406.701">
  <defs>
    <style>
      .cls-1 {
        fill: #fff;
      }
    </style>
  </defs>
  <g id="android-volume-off" transform="translate(-64 -64)">
    <path id="Path_66" data-name="Path 66" class="cls-1" d="M402.727,267.35a177.68,177.68,0,0,1-13.25,67.63l31.051,33.765A225.8,225.8,0,0,0,444.119,267.35C444.119,168.581,381.786,84.914,299,64v47.637C359.385,131.394,402.727,194.147,402.727,267.35Z" transform="translate(-6.119 0)"/>
    <path id="Path_67" data-name="Path 67" class="cls-1" d="M254.671,80.458,204.979,136.04l49.692,54.036Z" transform="translate(-3.671 0.973)"/>
    <path id="Path_68" data-name="Path 68" class="cls-1" d="M411.55,416.378,90.41,67.157,67.035,92.576l88.142,95.758-8.064,11.046H64V334.948h83.112L251,453.084v-160.5l92.444,100.284a141.118,141.118,0,0,1-50.563,30.012v47.637c30.193-7.6,57.46-23.473,80.172-45.34l38.578,42.04,23.375-25.465-23.376-25.46Z" transform="translate(0 0.187)"/>
    <path id="Path_69" data-name="Path 69" class="cls-1" d="M350.8,261.254c0-40.67-20.637-76.688-51.8-94.117v63.356l49.477,53.8A115.383,115.383,0,0,0,350.8,261.254Z" transform="translate(-6.119 6.097)"/>
  </g>
</svg>
